<svg xmlns="http://www.w3.org/2000/svg" xmlns:xlink="http://www.w3.org/1999/xlink" width="500" zoomAndPan="magnify" viewBox="0 0 375 374.999991" height="500" preserveAspectRatio="xMidYMid meet" version="1.0"><defs><clipPath id="dbae90a381"><path d="M 11.1875 49.273438 L 363.6875 49.273438 L 363.6875 352.035156 L 11.1875 352.035156 Z M 11.1875 49.273438 " clip-rule="nonzero"/></clipPath><clipPath id="c54f6c75bb"><path d="M 267 22.867188 L 290 22.867188 L 290 88 L 267 88 Z M 267 22.867188 " clip-rule="nonzero"/></clipPath><clipPath id="ea5ca36609"><path d="M 97.417969 153.121094 L 277.417969 153.121094 L 277.417969 333.121094 L 97.417969 333.121094 Z M 97.417969 153.121094 " clip-rule="nonzero"/></clipPath></defs><path fill="#284b63" d="M 114.394531 61.339844 L 258.363281 61.339844 C 259.691406 61.339844 260.769531 60.265625 260.769531 58.933594 L 260.769531 51.710938 C 260.769531 50.378906 259.691406 49.300781 258.363281 49.300781 L 114.394531 49.300781 C 113.066406 49.300781 111.988281 50.378906 111.988281 51.710938 L 111.988281 58.933594 C 111.988281 60.265625 113.066406 61.339844 114.394531 61.339844 " fill-opacity="1" fill-rule="nonzero"/><g clip-path="url(#dbae90a381)"><path fill="#284b63" d="M 326.207031 339.992188 L 48.671875 339.992188 C 34.617188 339.992188 23.222656 328.597656 23.222656 314.539062 L 23.222656 145.097656 L 351.652344 145.097656 L 351.652344 314.539062 C 351.652344 328.597656 340.257812 339.992188 326.207031 339.992188 Z M 326.207031 49.296875 L 299.289062 49.296875 C 297.960938 49.296875 296.882812 50.378906 296.882812 51.707031 L 296.882812 58.929688 C 296.882812 60.261719 297.960938 61.339844 299.289062 61.339844 L 326.207031 61.339844 C 340.242188 61.339844 351.652344 72.753906 351.652344 86.820312 L 351.652344 133.054688 L 23.222656 133.054688 L 23.222656 86.820312 C 23.222656 72.753906 34.636719 61.339844 48.671875 61.339844 L 73.46875 61.339844 C 74.796875 61.339844 75.875 60.261719 75.875 58.929688 L 75.875 51.707031 C 75.875 50.378906 74.796875 49.296875 73.46875 49.296875 L 48.671875 49.296875 C 28.015625 49.296875 11.1875 66.132812 11.1875 86.820312 L 11.1875 314.539062 C 11.1875 335.160156 28.054688 352.035156 48.671875 352.035156 L 326.207031 352.035156 C 346.824219 352.035156 363.691406 335.160156 363.691406 314.539062 L 363.691406 86.820312 C 363.691406 66.132812 346.863281 49.296875 326.207031 49.296875 " fill-opacity="1" fill-rule="nonzero"/></g><path fill="#284b63" d="M 93.929688 90.648438 C 99.902344 90.648438 104.765625 85.808594 104.765625 79.8125 L 104.765625 36.777344 C 104.765625 30.78125 99.902344 25.941406 93.929688 25.941406 C 87.9375 25.941406 83.097656 30.78125 83.097656 36.777344 L 83.097656 79.8125 C 83.097656 85.808594 87.9375 90.648438 93.929688 90.648438 " fill-opacity="1" fill-rule="nonzero"/><g clip-path="url(#c54f6c75bb)"><path fill="#284b63" d="M 278.824219 87.6875 C 284.796875 87.6875 289.660156 82.820312 289.660156 76.847656 L 289.660156 33.789062 C 289.660156 27.820312 284.796875 22.953125 278.824219 22.953125 C 272.832031 22.953125 267.992188 27.820312 267.992188 33.789062 L 267.992188 76.847656 C 267.992188 82.820312 272.832031 87.6875 278.824219 87.6875 " fill-opacity="1" fill-rule="nonzero"/></g><path fill="#284b63" d="M 204.835938 240.21875 C 205.460938 240.21875 206.058594 240.320312 206.660156 240.398438 C 207.375 238.480469 207.738281 236.476562 207.738281 234.410156 C 207.738281 224.804688 199.925781 216.992188 190.320312 216.992188 C 182.550781 216.992188 175.972656 222.070312 173.75 229.148438 C 175.347656 228.796875 177.003906 228.605469 178.707031 228.605469 C 187.539062 228.605469 195.46875 233.59375 199.378906 241.292969 C 201.070312 240.613281 202.90625 240.21875 204.835938 240.21875 " fill-opacity="1" fill-rule="nonzero"/><path fill="#284b63" d="M 204.835938 246.023438 C 200.027344 246.023438 196.125 249.925781 196.125 254.734375 C 196.125 259.542969 200.027344 263.441406 204.835938 263.441406 C 209.644531 263.441406 213.546875 259.542969 213.546875 254.734375 C 213.546875 249.925781 209.644531 246.023438 204.835938 246.023438 " fill-opacity="1" fill-rule="nonzero"/><path fill="#284b63" d="M 178.707031 234.410156 C 169.101562 234.410156 161.285156 242.222656 161.285156 251.832031 C 161.285156 261.4375 169.101562 269.25 178.707031 269.25 C 184.21875 269.25 189.253906 266.699219 192.542969 262.355469 C 191.160156 260.132812 190.320312 257.535156 190.320312 254.734375 C 190.320312 250.785156 191.917969 247.203125 194.480469 244.582031 C 191.667969 238.449219 185.566406 234.410156 178.707031 234.410156 " fill-opacity="1" fill-rule="nonzero"/><g clip-path="url(#ea5ca36609)"><path fill="#284b63" d="M 261.789062 250.570312 C 260.3125 247.871094 257.480469 246.023438 254.191406 246.023438 C 249.382812 246.023438 245.480469 249.925781 245.480469 254.734375 C 245.480469 254.925781 245.527344 255.097656 245.539062 255.289062 C 241.261719 256.195312 236.613281 257 231.65625 257.691406 C 227.800781 252.714844 223.695312 247.792969 219.566406 243.121094 C 223.742188 238.390625 227.835938 233.480469 231.691406 228.546875 C 258.75 232.300781 271.609375 238.855469 271.609375 243.121094 C 271.609375 244.878906 268.945312 247.679688 261.789062 250.570312 Z M 247.554688 303.261719 C 244.371094 306.4375 229.75 301.105469 208.179688 284.785156 C 208.863281 279.375 209.394531 273.832031 209.78125 268.320312 C 208.226562 268.886719 206.582031 269.25 204.835938 269.25 C 204.507812 269.25 204.199219 269.191406 203.882812 269.171875 C 203.589844 273.230469 203.214844 276.996094 202.804688 280.613281 C 199.210938 277.730469 195.457031 274.589844 191.542969 271.144531 C 189.820312 272.300781 187.949219 273.21875 185.976562 273.875 C 183.695312 274.625 181.28125 275.042969 178.796875 275.054688 C 176.507812 276.996094 174.25 278.855469 172.003906 280.648438 C 171.753906 278.457031 171.527344 276.191406 171.324219 273.832031 C 169.125 273.09375 167.070312 272.027344 165.222656 270.710938 C 165.585938 275.40625 166.0625 280.148438 166.652344 284.808594 C 162.988281 287.585938 159.4375 290.09375 156.023438 292.363281 C 154.4375 290.660156 152.179688 289.570312 149.675781 289.570312 C 144.867188 289.570312 140.964844 293.472656 140.964844 298.28125 C 140.964844 299.15625 141.132812 299.996094 141.371094 300.789062 C 133.128906 304.597656 128.683594 304.65625 127.277344 303.261719 C 124.214844 300.1875 128.785156 286.148438 145.703125 263.875 C 150.367188 264.464844 155.117188 264.953125 159.824219 265.3125 C 158.507812 263.464844 157.441406 261.414062 156.707031 259.214844 C 154.347656 259.007812 152.078125 258.78125 149.878906 258.53125 C 151.648438 256.320312 153.484375 254.074219 155.492188 251.726562 C 155.503906 249.222656 155.945312 246.816406 156.707031 244.5625 C 157.363281 242.574219 158.269531 240.714844 159.40625 239.003906 C 155.945312 235.089844 152.804688 231.324219 149.921875 227.71875 C 155.683594 227.074219 161.910156 226.539062 168.703125 226.199219 C 169.113281 225.113281 169.589844 224.058594 170.132812 223.070312 C 170.144531 223.046875 170.15625 223.035156 170.167969 223.023438 C 170.710938 222.039062 171.324219 221.097656 172.003906 220.210938 C 171.574219 220.234375 171.164062 220.257812 170.734375 220.269531 C 171.074219 215.039062 171.492188 210.152344 172.003906 205.617188 C 174.996094 208.007812 178.039062 210.503906 181.097656 213.160156 C 183.21875 212.226562 185.5 211.628906 187.871094 211.378906 C 188.6875 211.285156 189.492188 211.183594 190.320312 211.183594 C 191.179688 211.183594 192.03125 211.242188 192.871094 211.332031 C 192.90625 211.332031 192.9375 211.34375 192.960938 211.34375 C 193.777344 211.445312 194.582031 211.582031 195.367188 211.753906 C 197.953125 209.539062 200.425781 207.523438 202.839844 205.582031 C 203.191406 208.746094 203.519531 212.023438 203.792969 215.527344 C 205.8125 216.96875 207.570312 218.738281 209.03125 220.746094 C 210.335938 222.515625 211.390625 224.464844 212.148438 226.5625 C 216.6875 226.871094 220.917969 227.265625 224.910156 227.707031 C 221.210938 232.347656 217.082031 237.222656 212.410156 242.371094 C 212.421875 242.371094 212.421875 242.371094 212.421875 242.371094 C 213.226562 242.871094 213.964844 243.460938 214.667969 244.097656 C 214.78125 244.210938 214.882812 244.332031 214.996094 244.449219 C 215.519531 244.96875 215.996094 245.511719 216.4375 246.101562 C 217.558594 247.613281 218.421875 249.3125 218.898438 251.195312 C 221.0625 253.722656 223.058594 256.152344 224.953125 258.53125 C 222.867188 258.769531 220.746094 258.984375 218.582031 259.179688 C 217.808594 261.558594 216.472656 263.667969 214.679688 265.335938 C 219.667969 264.953125 224.511719 264.464844 229.136719 263.886719 C 246.058594 286.148438 250.617188 300.1875 247.554688 303.261719 Z M 187.417969 327.3125 C 183.1875 327.3125 176.632812 314.738281 172.855469 287.394531 C 177.605469 283.6875 182.496094 279.605469 187.425781 275.261719 C 192.109375 279.386719 197.011719 283.492188 201.964844 287.347656 C 198.191406 314.441406 191.589844 327.3125 187.417969 327.3125 Z M 103.222656 243.121094 C 103.222656 238.5625 117.011719 232.199219 143.175781 228.558594 C 147.03125 233.515625 151.125 238.425781 155.265625 243.121094 C 151.136719 247.792969 147.03125 252.714844 143.175781 257.691406 C 115.800781 253.90625 103.222656 247.351562 103.222656 243.121094 Z M 127.277344 182.980469 C 128.785156 181.484375 134.09375 181.710938 143.992188 186.734375 C 143.9375 187.144531 143.867188 187.539062 143.867188 187.960938 C 143.867188 192.769531 147.769531 196.667969 152.578125 196.667969 C 154.492188 196.667969 156.242188 196.035156 157.679688 194.980469 C 160.582031 196.953125 163.589844 199.105469 166.664062 201.441406 C 165.855469 207.769531 165.269531 214.257812 164.871094 220.585938 C 158.359375 220.996094 151.917969 221.585938 145.761719 222.367188 C 129.441406 200.796875 124.089844 186.179688 127.277344 182.980469 Z M 187.417969 158.925781 C 191.679688 158.925781 198.234375 171.777344 201.988281 198.824219 C 197.078125 202.667969 192.15625 206.785156 187.417969 210.980469 C 182.503906 206.636719 177.605469 202.566406 172.84375 198.847656 C 176.597656 171.789062 183.152344 158.925781 187.417969 158.925781 Z M 247.554688 182.980469 C 250.800781 186.234375 245.414062 200.832031 229.070312 222.378906 C 222.742188 221.574219 216.277344 220.972656 209.949219 220.585938 C 209.566406 214.257812 208.964844 207.769531 208.160156 201.433594 C 230.441406 184.5 244.492188 179.929688 247.554688 182.980469 Z M 277.417969 243.121094 C 277.417969 233.207031 258.316406 226.800781 235.683594 223.296875 C 249.734375 204.3125 258.851562 186.078125 251.660156 178.875 C 244.484375 171.695312 226.316406 180.710938 207.238281 194.84375 C 203.734375 172.21875 197.328125 153.121094 187.417969 153.121094 C 177.492188 153.121094 171.097656 172.21875 167.59375 194.878906 C 165.335938 193.210938 163.125 191.632812 160.96875 190.171875 C 161.152344 189.457031 161.285156 188.730469 161.285156 187.960938 C 161.285156 183.152344 157.386719 179.25 152.578125 179.25 C 150.296875 179.25 148.234375 180.144531 146.679688 181.597656 C 135.203125 175.746094 127.265625 174.792969 123.183594 178.875 C 116.027344 186.03125 125.257812 204.414062 139.183594 223.296875 C 115.539062 226.9375 97.417969 233.550781 97.417969 243.121094 C 97.417969 253.019531 116.480469 259.449219 139.183594 262.957031 C 125.3125 281.792969 116.050781 300.222656 123.183594 307.355469 C 124.859375 309.042969 127.183594 309.882812 130.132812 309.882812 C 133.980469 309.882812 138.933594 308.386719 144.867188 305.539062 C 146.25 306.445312 147.90625 306.992188 149.675781 306.992188 C 154.484375 306.992188 158.382812 303.089844 158.382812 298.28125 C 158.382812 298.121094 158.351562 297.976562 158.339844 297.828125 C 161.320312 295.867188 164.40625 293.722656 167.582031 291.375 C 171.085938 314.066406 177.527344 333.121094 187.417969 333.121094 C 197.363281 333.121094 203.78125 314.25 207.273438 291.363281 C 221.640625 301.957031 235.714844 309.839844 244.765625 309.839844 C 247.601562 309.839844 249.949219 309.066406 251.660156 307.355469 C 258.785156 300.222656 249.519531 281.792969 235.660156 262.964844 C 239.992188 262.296875 244.097656 261.550781 247.886719 260.710938 C 249.472656 262.386719 251.707031 263.441406 254.191406 263.441406 C 258.421875 263.441406 261.9375 260.414062 262.730469 256.421875 C 272.4375 252.714844 277.417969 248.246094 277.417969 243.121094 " fill-opacity="1" fill-rule="nonzero"/></g></svg>